<?xml version="1.0" encoding="UTF-8" standalone="no"?>
<!-- Created with Inkscape (http://www.inkscape.org/) -->

<svg
   width="173.79974mm"
   height="149.69968mm"
   viewBox="0 0 173.79974 149.69968"
   version="1.1"
   id="svg65"
   xml:space="preserve"
   sodipodi:docname="logo.svg"
   inkscape:version="1.2 (dc2aedaf03, 2022-05-15)"
   xmlns:inkscape="http://www.inkscape.org/namespaces/inkscape"
   xmlns:sodipodi="http://sodipodi.sourceforge.net/DTD/sodipodi-0.dtd"
   xmlns="http://www.w3.org/2000/svg"
   xmlns:svg="http://www.w3.org/2000/svg"><sodipodi:namedview
     id="namedview67"
     pagecolor="#505050"
     bordercolor="#eeeeee"
     borderopacity="1"
     inkscape:showpageshadow="0"
     inkscape:pageopacity="0"
     inkscape:pagecheckerboard="0"
     inkscape:deskcolor="#505050"
     inkscape:document-units="mm"
     showgrid="false"
     inkscape:zoom="0.77593294"
     inkscape:cx="-32.219279"
     inkscape:cy="412.40677"
     inkscape:window-width="1916"
     inkscape:window-height="1033"
     inkscape:window-x="0"
     inkscape:window-y="22"
     inkscape:window-maximized="1"
     inkscape:current-layer="layer1" /><defs
     id="defs62" /><g
     inkscape:label="Layer 1"
     inkscape:groupmode="layer"
     id="layer1"
     transform="translate(-9.8940664,-11.257469)"><g
       id="g3806"
       transform="translate(-3.4824806,-16.829192)"><path
         style="fill:#fdfdfd;stroke-width:0.3175"
         d="m 162.5543,177.56791 c -2.87258,-0.60659 -5.47852,-1.67307 -7.71896,-3.15897 -3.2285,-2.14116 -63.914689,-62.85532 -64.352585,-64.38221 -0.794703,-2.771 1.773967,-5.53818 4.655058,-5.01476 1.065117,0.1935 4.616672,3.63408 32.469677,31.45521 35.85937,35.81832 32.56172,32.99682 38.57625,33.00606 3.30251,0.005 3.60744,-0.0509 5.6054,-1.02831 7.44709,-3.64325 9.4843,-12.88104 4.33962,-19.67812 -0.88998,-1.17582 -1.73072,-2.53037 -1.86829,-3.01009 -0.52388,-1.82657 0.67465,-3.92112 2.67808,-4.68026 1.55597,-0.58957 3.0044,-0.0836 4.62508,1.61556 4.14369,4.34442 6.2798,10.98207 5.42735,16.86471 -1.19145,8.2217 -6.90693,14.94495 -14.77474,17.37976 -2.51704,0.77893 -7.43985,1.10065 -9.66194,0.63142 z M 42.889186,59.419311 C 41.253902,57.10427 40.95069,56.488739 41.261173,56.114616 41.47104,55.861749 41.76949,55.65486 41.92443,55.65486 c 0.226791,0 4.504405,2.985446 5.433632,3.792255 0.130239,0.113087 -0.369824,0.793207 -1.11125,1.511373 l -1.348073,1.30576 z"
         id="path3888" /><path
         style="fill:#1dfde8;stroke-width:0.3175"
         d="M 65.031573,127.17096 C 48.749665,110.52779 41.276349,99.693101 38.355921,88.497028 37.391927,84.801452 37.31341,78.220966 38.195075,75.02236 40.841343,65.422157 49.855454,56.153824 59.503739,53.112726 c 3.115564,-0.982014 8.952865,-1.220308 12.464225,-0.508816 9.348153,1.894177 19.290856,7.685625 31.033276,18.076333 6.31323,5.586501 14.81611,13.971371 14.39253,14.192815 -0.23241,0.121491 -1.56042,0.39898 -2.95119,0.616648 -6.31406,0.98821 -12.66257,2.916647 -17.31509,5.259696 -4.228687,2.12959 -7.107047,4.340793 -11.934603,9.168358 -6.559645,6.55965 -9.083104,10.4809 -11.611674,18.04368 -1.189101,3.55644 -3.119501,11.90063 -3.122422,13.49654 0,0.39291 -0.121253,0.71438 -0.267843,0.71438 -0.14659,0 -2.468308,-2.25063 -5.159375,-5.0014 z"
         id="path3874" /><path
         style="fill:#fdd81d;stroke-width:0.3175"
         d="M 113.47395,80.062517 C 96.586311,63.169825 83.727624,54.516041 72.251872,52.320364 c -6.823424,-1.305535 -14.836394,0.171278 -19.9751,3.681463 -0.884174,0.603968 -0.939165,0.613474 -0.393033,0.06794 1.319244,-1.3178 6.152579,-5.459641 9.257189,-7.932805 C 73.759807,38.084686 86.4379,31.586112 98.128694,29.177697 104.8469,27.793679 113.10939,27.720661 119.19374,28.99154 c 11.26709,2.353437 22.1976,8.359569 32.22625,17.707804 l 2.38125,2.219687 -1.27,0.222307 c -18.63373,3.261757 -29.88186,13.853849 -33.66291,31.699514 -0.40052,1.890484 -0.77908,3.488084 -0.84121,3.550219 -0.0621,0.06213 -2.11106,-1.885712 -4.55317,-4.328554 z"
         id="path3858" /><path
         style="fill:#fd1db8;stroke-width:0.3175"
         d="m 31.397273,165.27173 c -1.43275,-1.52796 -3.777107,-4.34975 -5.209667,-6.27062 -7.755446,-10.39895 -11.554936,-19.7404 -12.614624,-31.01434 -1.617536,-17.20932 6.792373,-37.290988 23.830534,-56.903839 4.818475,-5.546617 4.641564,-5.379107 3.384169,-3.204321 -5.14623,8.900941 -4.826667,18.972203 0.962057,30.32125 4.323239,8.47582 10.029,15.79594 22.075109,28.32082 l 6.015482,6.25456 -1.199547,0.2042 c -12.159837,2.07001 -21.561679,7.64245 -27.297666,16.17917 -2.92481,4.35296 -5.599589,11.13663 -6.478461,16.43062 -0.224663,1.35335 -0.510635,2.46063 -0.635444,2.46063 -0.124841,0 -1.399191,-1.25016 -2.831942,-2.77813 z"
         id="path3848" /></g></g></svg>
